<svg width="7" height="12" viewBox="0 0 7 12" fill="none" xmlns="http://www.w3.org/2000/svg">
<path d="M0.328 0.327984C0.234333 0.432317 0.1875 0.546984 0.1875 0.671984C0.1875 0.796984 0.234333 0.906317 0.328 0.999984L5.203 5.99998L0.328 11C0.234333 11.0937 0.1875 11.203 0.1875 11.328C0.1875 11.453 0.234333 11.5623 0.328 11.656C0.421667 11.7497 0.531 11.7965 0.656 11.7965C0.781 11.7965 0.890334 11.7548 0.984 11.6715L6.156 6.34348C6.24967 6.24982 6.2965 6.13515 6.2965 5.99948C6.2965 5.86382 6.24967 5.74915 6.156 5.65548L0.984 0.327484C0.890334 0.244151 0.781 0.202484 0.656 0.202484C0.531 0.202484 0.421667 0.244151 0.328 0.327484V0.327984Z" fill="black"/>
</svg>
