<svg width="10" height="10" viewBox="0 0 10 10" fill="none"
    xmlns="http://www.w3.org/2000/svg">
    <path d="M8.93746 0.35949L4.99996 4.29699L1.06246 0.35949C0.958123 0.265824 0.840956 0.218991 0.710956 0.218991C0.580956 0.218991 0.46629 0.268491 0.366957 0.367491C0.267623 0.466491 0.218123 0.581157 0.218456 0.711491C0.21879 0.841824 0.265623 0.958991 0.358956 1.06299L4.29646 5.00049L0.358956 8.93799C0.223623 9.07332 0.17929 9.23482 0.225957 9.42249C0.272623 9.61016 0.38729 9.72732 0.569956 9.77399C0.752623 9.82066 0.916623 9.77632 1.06196 9.64099L4.99946 5.70349L8.93696 9.64099C9.04129 9.73466 9.15845 9.78149 9.28846 9.78149C9.41846 9.78149 9.53312 9.73199 9.63245 9.63299C9.73179 9.53399 9.78129 9.41932 9.78096 9.28899C9.78062 9.15866 9.73379 9.04149 9.64046 8.93749L5.70296 4.99999L9.64046 1.06249C9.77579 0.927157 9.82012 0.765657 9.77346 0.577991C9.72679 0.390324 9.60962 0.273157 9.42196 0.226491C9.23429 0.179824 9.07279 0.224157 8.93746 0.35949Z" fill="#303133"/>
</svg>