<svg width="12" height="12" viewBox="0 0 12 12" fill="none" xmlns="http://www.w3.org/2000/svg">
<path d="M0.5 11H11.5C11.646 11 11.7658 11.0469 11.8595 11.1405C11.9532 11.2342 12 11.354 12 11.5C12 11.646 11.9532 11.7659 11.8595 11.8595C11.7658 11.9532 11.646 12 11.5 12H0.5C0.354 12 0.234167 11.9532 0.1405 11.8595C0.0468334 11.7659 0 11.646 0 11.5C0 11.354 0.0468334 11.2342 0.1405 11.1405C0.234167 11.0469 0.354 11 0.5 11ZM6.5 7.03152L10.1875 3.34402L10.9065 4.04702L5.9535 9.00002L1.0005 4.04702L1.7035 3.34402L5.5005 7.14102V0.000518799H6.5005V7.03202L6.5 7.03152Z" fill="black"/>
</svg>
