<svg width="13" height="13" viewBox="0 0 13 13" fill="none" xmlns="http://www.w3.org/2000/svg">
<path d="M9.68748 8.26548L8.96848 7.56248L10.3905 6.14048C10.9738 5.52582 11.2993 4.85398 11.367 4.12498C11.4347 3.39598 11.229 2.77098 10.75 2.24998C10.229 1.77065 9.60398 1.56498 8.87498 1.63298C8.14598 1.70098 7.47415 2.02648 6.85948 2.60948L5.43748 4.03148L4.73448 3.31248L6.14098 1.90598C6.96398 1.12465 7.87548 0.70015 8.87548 0.632484C9.87548 0.564817 10.7348 0.869484 11.4535 1.54648C12.1305 2.26515 12.4352 3.12448 12.3675 4.12448C12.2998 5.12448 11.8753 6.03598 11.094 6.85898L9.68748 8.26548ZM8.26548 9.68748L6.85898 11.094C6.03598 11.8753 5.12448 12.2998 4.12448 12.3675C3.12448 12.4352 2.26515 12.1305 1.54648 11.4535C0.869484 10.7348 0.564817 9.87548 0.632484 8.87548C0.70015 7.87548 1.12465 6.96398 1.90598 6.14098L3.31248 4.73448L4.03148 5.43748L2.60948 6.85948C2.02615 7.47415 1.70065 8.14598 1.63298 8.87498C1.56532 9.60398 1.77098 10.229 2.24998 10.75C2.77098 11.2293 3.39598 11.435 4.12498 11.367C4.85398 11.299 5.52582 10.9735 6.14048 10.3905L7.56248 8.96848L8.26548 9.68748ZM8.26548 4.03148L8.96848 4.73448L4.73398 8.96898L4.03098 8.26598L8.26548 4.03148Z" fill="#303133"/>
</svg>
