<?xml version="1.0" standalone="no"?><!DOCTYPE svg PUBLIC "-//W3C//DTD SVG 1.1//EN" "http://www.w3.org/Graphics/SVG/1.1/DTD/svg11.dtd"><svg t="1696495163351" class="icon" viewBox="0 0 1024 1024" version="1.1" xmlns="http://www.w3.org/2000/svg" p-id="5930" xmlns:xlink="http://www.w3.org/1999/xlink" width="128" height="128"><path d="M641.536 501.76c40.96-36.352 67.072-88.576 67.072-146.944 0-108.544-88.576-197.12-197.12-197.12S314.88 245.76 314.88 354.304c0 58.88 26.624 111.104 67.072 146.944C265.216 555.52 183.296 680.96 183.296 826.88c0 21.504 17.408 39.424 39.424 39.424s39.424-17.408 39.424-39.424c0-152.064 112.128-275.456 249.344-275.456S760.832 675.328 760.832 826.88c0 21.504 17.408 39.424 39.424 39.424s39.424-17.408 39.424-39.424c0.512-145.408-81.408-270.848-198.144-325.12zM393.728 354.304c0-65.024 53.248-118.272 118.272-118.272s118.272 53.248 118.272 118.272S577.024 472.576 512 472.576 393.728 419.84 393.728 354.304z" fill="#231815" p-id="5931"></path><path d="M882.176 501.76c26.624-28.16 43.52-66.048 43.52-108.032 0-87.04-70.656-157.696-157.696-157.696-21.504 0-39.424 17.408-39.424 39.424S745.984 314.88 768 314.88c43.52 0 78.848 35.328 78.848 78.848S811.52 472.576 768 472.576c-21.504 0-39.424 17.408-39.424 39.424s17.408 39.424 39.424 39.424c97.792 0 177.152 88.576 177.152 197.12 0 21.504 17.408 39.424 39.424 39.424S1024 770.56 1024 748.544c0-108.032-57.856-201.216-141.824-246.784zM295.424 512c0-21.504-17.408-39.424-39.424-39.424-43.52 0-78.848-35.328-78.848-78.848S212.48 314.88 256 314.88c21.504 0 39.424-17.408 39.424-39.424S278.016 236.032 256 236.032c-87.04 0-157.696 70.656-157.696 157.696 0 41.984 16.896 79.872 43.52 108.032C57.856 547.328 0 640.512 0 748.544c0 21.504 17.408 39.424 39.424 39.424s39.424-17.408 39.424-39.424c0-108.544 79.36-197.12 177.152-197.12 21.504 0 39.424-17.92 39.424-39.424z" fill="#231815" p-id="5932"></path></svg>