<svg width="15" height="15" viewBox="0 0 15 15" fill="none"
    xmlns="http://www.w3.org/2000/svg">
    <path d="M11.9375 11.7345L13.8905 13.6875C13.9842 13.7918 14.031 13.909 14.031 14.039C14.031 14.169 13.9815 14.2837 13.8825 14.383C13.7835 14.4823 13.6688 14.5318 13.5385 14.5315C13.4082 14.5312 13.291 14.4843 13.187 14.391L11.234 12.438C9.84867 13.5733 8.31217 14.0915 6.6245 13.9925C4.93683 13.8935 3.47333 13.2033 2.234 11.922C1.04633 10.5783 0.468168 9.06267 0.499501 7.375C0.530834 5.68733 1.16633 4.19767 2.406 2.906C3.69767 1.66633 5.18733 1.03083 6.875 0.999501C8.56267 0.968168 10.0783 1.54633 11.422 2.734C12.7033 3.97367 13.3935 5.43717 13.4925 7.1245C13.5915 8.81183 13.0733 10.3483 11.938 11.734L11.9375 11.7345ZM7 13C8.56267 12.9583 9.8595 12.4218 10.8905 11.3905C11.9215 10.3592 12.458 9.06233 12.5 7.5C12.4583 5.93733 11.9218 4.6405 10.8905 3.6095C9.85917 2.5785 8.56233 2.042 7 2C5.43733 2.04167 4.1405 2.57817 3.1095 3.6095C2.0785 4.64083 1.542 5.93767 1.5 7.5C1.54167 9.06267 2.07817 10.3595 3.1095 11.3905C4.14083 12.4215 5.43767 12.958 7 13Z" fill="black" />
</svg>