<svg width="11" height="15" viewBox="0 0 11 15" fill="none" xmlns="http://www.w3.org/2000/svg">
<path d="M1 4.46902V13.5005H10V4.46902L6.1405 1.31252C5.9425 1.15619 5.729 1.07802 5.5 1.07802C5.271 1.07802 5.0575 1.15619 4.8595 1.31252L1 4.46902ZM6.7655 0.531522L10.8125 3.84402C10.9375 3.94835 11 4.07852 11 4.23452V14C11 14.146 10.9532 14.2659 10.8595 14.3595C10.7658 14.4532 10.646 14.5 10.5 14.5H0.5C0.354 14.5 0.234167 14.4532 0.1405 14.3595C0.0468334 14.2659 0 14.146 0 14V4.23452C0 4.07819 0.0625 3.94802 0.1875 3.84402L4.2345 0.531522C4.61983 0.229522 5.04167 0.0785217 5.5 0.0785217C5.95833 0.0785217 6.38017 0.229522 6.7655 0.531522ZM5.5 6.50002C5.78133 6.48969 6.01567 6.39069 6.203 6.20302C6.39033 6.01536 6.48417 5.78102 6.4845 5.50002C6.48483 5.21902 6.391 4.98469 6.203 4.79702C6.015 4.60935 5.78067 4.51552 5.5 4.51552C5.21933 4.51552 4.985 4.60935 4.797 4.79702C4.609 4.98469 4.51517 5.21902 4.5155 5.50002C4.51583 5.78102 4.60967 6.01536 4.797 6.20302C4.98433 6.39069 5.21867 6.48969 5.5 6.50002ZM5.5 7.50002C4.93733 7.48969 4.466 7.29436 4.086 6.91402C3.706 6.53369 3.51067 6.06236 3.5 5.50002C3.51033 4.93736 3.70567 4.46602 4.086 4.08602C4.46633 3.70602 4.93767 3.51069 5.5 3.50002C6.06267 3.51035 6.534 3.70569 6.914 4.08602C7.294 4.46636 7.48933 4.93769 7.5 5.50002C7.48967 6.06269 7.29433 6.53402 6.914 6.91402C6.53367 7.29402 6.06233 7.48936 5.5 7.50002Z" fill="#303133"/>
</svg>
